<?xml version="1.0" encoding="utf-8"?><svg viewBox="0 0 88 26" xmlns="http://www.w3.org/2000/svg" xmlns:xlink="http://www.w3.org/1999/xlink"><style>:root>svg{display:none}:root>svg:target{display:block}</style><svg fill="none" viewBox="0 0 21 8" id="Arrow-link" xmlns="http://www.w3.org/2000/svg"><path d="M20.354 4.354a.5.5 0 000-.708L17.172.464a.5.5 0 10-.707.708L19.293 4l-2.828 2.828a.5.5 0 10.707.708l3.182-3.182zM0 4.5h20v-1H0v1z" fill="#4FB6F9"/></svg><svg viewBox="0 0 26 26" id="cabinet" xmlns="http://www.w3.org/2000/svg"><path d="M13 0C5.832 0 0 5.832 0 13c0 3.14 1.119 6.023 2.979 8.271.004.007.005.015.01.021a12.997 12.997 0 004.909 3.663c.022.01.043.02.065.028.152.064.305.124.46.182l.183.068a12.69 12.69 0 001.02.32c.106.028.212.055.319.08a11.865 11.865 0 00.692.147c.099.018.197.037.297.053.136.022.274.04.412.057.088.012.177.025.266.034.156.017.313.028.471.04.073.004.146.012.22.016a12.365 12.365 0 001.395 0c.074-.003.147-.01.22-.016.158-.011.315-.022.47-.039.09-.01.178-.023.267-.034.138-.017.276-.035.412-.057.1-.016.198-.035.297-.053a12.925 12.925 0 00.692-.147 12.727 12.727 0 001.34-.4l.182-.068c.155-.058.308-.118.46-.182l.065-.028a12.999 12.999 0 004.909-3.663c.005-.006.005-.015.01-.02A12.947 12.947 0 0026 13c0-7.168-5.832-13-13-13zm5.268 23.929l-.019.01c-.155.074-.312.144-.47.212l-.108.046a11.83 11.83 0 01-1.213.431 10.882 10.882 0 01-.63.17c-.102.023-.204.048-.306.07-.113.024-.226.044-.338.064-.092.017-.183.035-.275.05-.127.02-.255.036-.383.052-.081.01-.162.022-.244.03-.146.017-.293.026-.44.037-.066.004-.13.012-.197.015a12.257 12.257 0 01-1.29 0c-.066-.003-.13-.01-.197-.015-.147-.01-.294-.02-.44-.036-.082-.009-.162-.02-.243-.031-.128-.016-.256-.032-.383-.052-.093-.015-.184-.033-.275-.05-.113-.02-.226-.04-.338-.064-.103-.022-.205-.047-.306-.07-.097-.024-.194-.047-.29-.073a12.49 12.49 0 01-1.553-.528c-.036-.014-.072-.03-.107-.045a11.972 11.972 0 01-.49-.223A12.192 12.192 0 013.8 20.9a9.564 9.564 0 016.26-6.56c.06.036.123.069.185.104.036.02.072.042.109.061.13.069.26.133.394.19.102.045.209.083.314.122l.063.023a5.6 5.6 0 001.874.328c.658 0 1.287-.12 1.874-.328l.062-.023c.106-.039.212-.077.315-.122a5.36 5.36 0 00.394-.19l.109-.061c.062-.035.125-.068.186-.105a9.567 9.567 0 016.26 6.56 12.203 12.203 0 01-3.932 3.03zM8.233 9.533A4.772 4.772 0 0113 4.767a4.772 4.772 0 014.767 4.766 4.764 4.764 0 01-2.705 4.291l-.064.031c-1.255.571-2.74.571-3.996 0l-.064-.03a4.764 4.764 0 01-2.704-4.29zm14.616 10.54a10.44 10.44 0 00-6.087-6.358 5.615 5.615 0 001.871-4.182A5.64 5.64 0 0013 3.9a5.64 5.64 0 00-5.633 5.633c0 1.66.725 3.15 1.871 4.182a10.442 10.442 0 00-6.087 6.358A12.062 12.062 0 01.867 13C.867 6.31 6.31.867 13 .867 19.69.867 25.133 6.31 25.133 13c0 2.638-.849 5.08-2.284 7.073z" fill="inherit"/></svg><svg fill="none" viewBox="0 0 14 16" id="date" xmlns="http://www.w3.org/2000/svg"><path d="M1.977 16C.87 16 0 15.102 0 13.96V3.51C0 2.45.87 1.47 1.977 1.47H3.56V.57c0-.326.238-.571.554-.571.316 0 .554.245.554.571v.898h4.666V.571c0-.326.238-.571.554-.571.316 0 .554.245.554.571v.898h1.582C13.13 1.47 14 2.367 14 3.51v10.368c0 1.142-.87 2.04-1.977 2.04H1.977V16zm-.87-2.04c0 .489.396.897.87.897h10.046c.474 0 .87-.408.87-.898V7.102H1.107v6.857zm.87-11.348c-.474 0-.87.408-.87.898v2.368h11.786V3.51c0-.49-.396-.898-.87-.898H10.44v.898c0 .327-.238.572-.554.572-.316 0-.554-.245-.554-.572v-.898H4.746v.898c0 .327-.238.572-.554.572-.316 0-.554-.245-.554-.572v-.898h-1.66z" fill="#A4A4A4"/></svg><svg fill="none" viewBox="0 0 15 15" id="download" xmlns="http://www.w3.org/2000/svg"><path d="M3.03 6.753l3.623 3.623c.247.248.577.248.824 0L11.1 6.753c.247-.247.247-.577 0-.824s-.659-.247-.823 0L7.724 8.482V.576A.563.563 0 007.147 0a.563.563 0 00-.576.576v7.906L4.018 5.93a.63.63 0 00-.412-.164.63.63 0 00-.412.164c-.411.247-.411.577-.164.824z" fill="#EB5757"/><path d="M13.588 8.832a.563.563 0 00-.576.577v3.376H1.235V9.41a.563.563 0 00-.576-.577c-.33 0-.659.247-.659.577v4.035c0 .33.247.577.576.577h13.012c.33 0 .577-.247.577-.577V9.41a.563.563 0 00-.577-.577z" fill="#EB5757"/></svg><svg viewBox="0 0 88 22" id="logo" xmlns="http://www.w3.org/2000/svg"><path d="M17.161 7.23c-.06.66-.19 1.39-.39 2.19H5.791c-.04.78.17 1.39.63 1.83.46.44 1.11.66 1.95.66 1.28 0 2.1-.37 2.46-1.11h5.7c-.44 1.58-1.44 2.83-2.99 3.77-1.55.93-3.42 1.39-5.59 1.39-2.72 0-4.78-.69-6.18-2.08-1.4-1.39-1.97-3.34-1.71-5.86.26-2.48 1.25-4.44 2.96-5.87C4.731.72 6.891 0 9.521 0c2.48 0 4.43.68 5.85 2.03 1.41 1.35 2.01 3.08 1.79 5.2zM6.121 6.18h5.25c.08-.82-.08-1.46-.46-1.92-.39-.46-1-.69-1.82-.69-.8 0-1.46.24-1.99.72-.54.48-.86 1.11-.98 1.89zM30.721.12c1.96 0 3.48.73 4.58 2.18 1.09 1.45 1.5 3.35 1.24 5.71-.24 2.34-1.06 4.23-2.47 5.69-1.41 1.45-3.1 2.17-5.08 2.17-1.12 0-2.07-.25-2.85-.77-.78-.51-1.3-1.13-1.56-1.88l-.84 7.92h-5.88L20.021.53h5.88l-.24 2.22c.44-.76 1.11-1.39 2.01-1.89.89-.49 1.91-.74 3.05-.74zm-5.31 10.19c.46.59 1.1.89 1.92.89.82 0 1.52-.3 2.12-.9.59-.6.92-1.36 1-2.28.1-.92-.08-1.67-.54-2.27-.46-.59-1.1-.88-1.92-.88-.82 0-1.52.29-2.1.87-.58.58-.92 1.34-1.02 2.28-.1.93.07 1.7.54 2.29zM54.921 7.23c-.06.66-.19 1.39-.39 2.19h-10.98c-.04.78.17 1.39.63 1.83.46.44 1.11.66 1.95.66 1.28 0 2.1-.37 2.46-1.11h5.7c-.44 1.58-1.44 2.83-2.99 3.77-1.55.93-3.42 1.39-5.59 1.39-2.72 0-4.78-.69-6.18-2.08-1.4-1.39-1.97-3.34-1.71-5.86.26-2.48 1.25-4.44 2.96-5.87C42.491.72 44.651 0 47.281 0c2.48 0 4.43.68 5.85 2.03 1.41 1.35 2.01 3.08 1.79 5.2zm-11.04-1.05h5.25c.08-.82-.08-1.46-.46-1.92-.39-.46-1-.69-1.82-.69-.8 0-1.46.24-1.99.72s-.86 1.11-.98 1.89zM56.541 7.23c-.05.66-.05 1.39.01 2.19h10.98c-.1.78-.41 1.39-.95 1.83-.54.44-1.23.66-2.07.66-1.28 0-2.04-.37-2.27-1.11h-5.7c.16 1.58.94 2.83 2.33 3.77 1.39.93 3.17 1.39 5.35 1.39 2.72 0 4.9-.69 6.54-2.08 1.64-1.39 2.55-3.34 2.73-5.86.17-2.48-.47-4.44-1.93-5.87C70.101.72 68.061 0 65.441 0c-2.48 0-4.55.68-6.2 2.03-1.65 1.35-2.55 3.08-2.7 5.2zm11.22-1.05h-5.25c.06-.82.33-1.46.8-1.92.47-.46 1.12-.69 1.94-.69.8 0 1.42.24 1.87.72.44.48.66 1.11.64 1.89zM74.811 15.45L76.371.54h5.88l-.33 3.33c.38-1.14.99-2.03 1.83-2.67.84-.64 1.78-.96 2.82-.96.38 0 .75.03 1.11.09l-.57 5.55c-.5-.08-1-.12-1.5-.12-1.22 0-2.21.34-2.97 1.04-.76.69-1.23 1.9-1.41 3.65l-.54 5.01h-5.88v-.01z" fill="inherit"/></svg></svg>